<svg xmlns="http://www.w3.org/2000/svg" viewBox="0 0 400 400"><rect width="400" height="400" fill="#312e81"/><g fill="#fef9c3"><circle cx="60" cy="60" r="3"/><circle cx="140" cy="100" r="2"/><circle cx="300" cy="50" r="3"/><circle cx="350" cy="130" r="2"/><circle cx="220" cy="80" r="2"/><circle cx="90" cy="160" r="2"/></g><circle cx="310" cy="95" r="34" fill="#fef9c3"/><circle cx="325" cy="85" r="30" fill="#312e81"/><g fill="#1e1b4b"><rect x="20" y="230" width="60" height="170"/><rect x="90" y="190" width="70" height="210"/><rect x="170" y="250" width="50" height="150"/><rect x="230" y="210" width="70" height="190"/><rect x="310" y="260" width="70" height="140"/></g><g fill="#fcd34d"><rect x="100" y="210" width="10" height="12"/><rect x="130" y="240" width="10" height="12"/><rect x="245" y="230" width="10" height="12"/><rect x="270" y="270" width="10" height="12"/><rect x="35" y="260" width="10" height="12"/><rect x="330" y="290" width="10" height="12"/></g><path d="M200 175 c -14 -10 -18 -18 -10 -23 c 5 -3 9 0 10 4 c 1 -4 5 -7 10 -4 c 8 5 4 13 -10 23z" fill="#f472b6"/></svg>
